<?xml version="1.0" encoding="UTF-8"?>
<svg id="Capa_2" data-name="Capa 2" xmlns="http://www.w3.org/2000/svg" viewBox="0 0 216.06 143.87">
  <defs>
    <style>
      .cls-1 {
        fill: #1d1d1b;
        font-family: StretchProRegular, 'Stretch Pro';
        font-size: 15.86px;
      }

      .cls-2, .cls-3 {
        fill: #fff;
      }

      .cls-4 {
        letter-spacing: -.12em;
      }

      .cls-5 {
        letter-spacing: -.04em;
      }

      .cls-6 {
        letter-spacing: -.03em;
      }

      .cls-7 {
        fill: #bcc996;
      }

      .cls-8 {
        fill: #1d71b8;
      }

      .cls-9 {
        letter-spacing: .51em;
      }

      .cls-3 {
        font-family: CopperplateCC, 'Copperplate CC';
        font-size: 33.24px;
      }

      .cls-10 {
        fill: #5f7a42;
      }

      .cls-11 {
        fill: none;
        stroke: #1d1d1b;
        stroke-miterlimit: 10;
        stroke-width: 1.36px;
      }
    </style>
  </defs>
  <g id="Capa_1-2" data-name="Capa 1">
    <g>
      <path class="cls-8" d="m185.36,79.56c0,5.75-.61,11.36-1.78,16.76H28.01c-1.17-5.4-1.78-11.01-1.78-16.76,0-3.72.26-7.37.75-10.95.46-3.32,1.12-6.58,1.98-9.76C38.07,24.95,69.02,0,105.8,0s65.56,23.24,75.8,55.34c1.57,4.93,2.68,10.06,3.27,15.36.32,2.91.49,5.87.49,8.86Z"/>
      <path class="cls-7" d="m185.36,79.56c0,5.75-.61,11.36-1.78,16.76H28.01c-1.17-5.4-1.78-11.01-1.78-16.76,0-7.17.95-14.11,2.73-20.71,8.8-3.41,21.18-7.91,25.23-7.91,6.51,0,15.13-.2,16.47.76,1.34.96,31.02,6.51,31.02,6.51,0,0,26.42-1.72,27.77-3.64,1.34-1.91,6.12-5.55,6.12-4.97s6.71,7.08,8.43,5.74c1.72-1.34,8.81-3.45,8.81-3.45l14.93,9.77,13.86-6.32c2.44,7.64,3.76,15.77,3.76,24.22Z"/>
      <path class="cls-10" d="m185.36,79.56c0,5.75-.61,11.36-1.78,16.76H28.01c-1.17-5.4-1.78-11.01-1.78-16.76,0-3.72.26-7.37.75-10.95,26.13-1.7,98.83-5.32,157.89,2.09.32,2.91.49,5.87.49,8.86Z"/>
      <path class="cls-2" d="m106.37,3.27c.72-.5,7.12.41,8.03,4.01,0,0,5.7-1.48,8.2,4.44.06.15.13.31.19.47,0,0-6.42-4.01-9.63-.98,0,0-2.88-6.46-7.58-8.03-.54-.18.8.09.8.09Z"/>
      <path class="cls-2" d="m128.07,9.43c.47-.33,4.65.26,5.24,2.62,0,0,3.72-.97,5.35,2.9.04.1.08.2.12.3,0,0-4.19-2.62-6.28-.64,0,0-1.88-4.21-4.95-5.24-.35-.12.52.06.52.06Z"/>
      <path class="cls-2" d="m165,51.32c.59-.41,5.88.34,6.62,3.31,0,0,4.7-1.22,6.77,3.66.05.12.1.25.15.39,0,0-5.3-3.31-7.95-.81,0,0-2.38-5.33-6.26-6.62-.44-.15.66.07.66.07Z"/>
      <path class="cls-2" d="m173.3,85.02l-5.38,11.3H28.99l.5-10.15s1.56,5.3,2.02,6.92c-.3-1.85-.3-8.07-.3-8.07l3.07,7.47-2.69-8.43,7.66,7.09-2.49-7.85s8.24,10.15,6.9,7.27c-1.34-2.87-2.11-8.8-2.11-8.8,0,0,6.13,12.44,5.55,9.57-.57-2.87-.57-9.19-.57-9.19l2.11,8.81.57-7.66s1.78,4.8,2.78,7.7c-.31-2.68.29-6.36.29-6.36,0,0,3.06,11.3,3.06,7.85s.19-10.34.19-10.34l3.45,9.96,3.44-8.81s.04.56.1,1.37c.16,2.36.48,6.86.48,6.29,0-.77,4.98,2.68,4.98,2.68v-11.11c0,1.34,3.83,8.81,3.83,8.81l2.68-8.04s2.41,3.99,3.83,6.66c-.64-2.37-1.28-5.75-1.33-6.07.28.35,5.19,6.67,5.64,7.21-.02-.04-.06-.08-.1-.14-1.11-1.48-5.28-11.05-5.54-11.65l6.69,12.03-4.21-13.6,1.86,3.58,5.22,10.02s1.53,1.34,1.15-.38c-.38-1.73-2.49-26.24-2.49-26.24l4.98,27.96-.96-22.02,2.87,19.72,1.92-20.68-.38,21.07s3.44-20.68,3.44-18,.58,18,.58,18l8.04-11.11-1.91,13.79s11.49-.39,13.21-1.15c1.69-.76,16.75-26,17.22-26.79-.15.42-3.06,8.13-5.79,14.78,4.44-7.47,10.4-16.5,10.4-16.14,0,.56-11.13,26.36-11.48,27.17l9.18-15.68-5.94,15.51,11.3-15.7-5.93,16.08,10.34-12.06-5.56,10.91,5.75-8.23-4.41,9,9.77-9-4.02,7.66,4.98-4.79-2.68,7.28,6.12-8.62-3.06,9.19,7.09-10.91-3.45,10.34,9.76-13.6-3.25,5.94-8.24,11.49,17.05-18-6.51,13.02,4.98-5.36-3.64,7.85,6.32-8.62Z"/>
      <path class="cls-2" d="m181.15,81l-2.48,15.32h-10.66l9.5-13.41s-2.4,5.53-3.81,8.56c2.22-3.51,7.45-10.47,7.45-10.47Z"/>
      <polygon class="cls-2" points="183.06 85.79 181.42 96.32 179.36 96.32 183.06 85.79"/>
      <text class="cls-3" transform="translate(54.23 41.96)"><tspan x="0" y="0">AHSA</tspan></text>
      <polygon class="cls-11" points="167.92 96.32 168.01 96.32 167.74 96.7 167.92 96.32"/>
      <path class="cls-2" d="m104.27,87.59v-1.98l-10.37-1.42s-4.62-2.73-5.65-2.82c-1.04-.1-1.7-1.98-1.6-3.3.09-1.32-5.47-3.21-5.47-3.21l-13.1-2.54.94-2.64s8.39,1.04,9.99,2.07c1.6,1.04,17.15,3.58,17.15,3.58l7.54,2.74s1.23-.66.95-1.79c-.29-1.13-.85-2.27-.85-2.27l-2.55-.09-.66-1.13,3.96-.85c1.98-2.73,7.16-1.69,7.16-1.69l-.09-2.08s-3.3-.94-6.6-.75-9.7-7.16-9.7-7.16l-9.43.09-13-.19-.19-2.45,36-1.79,2.35,1.89s2.17-.76,2.36-1.42c.19-.66-1.51-2.83-1.51-2.83,0,0-2.45-.28-2.82-.75-.38-.47.47-1.51.47-1.51l2.07-.19s1.23-3.86,4.71-4.24c3.49-.37,6.22,5.37,6.22,6.22s2.08.38,2.08.38c0,0,5.27,2.36,6.4,3.49,1.13,1.13-2.16,4.33-2.73,5.75-.56,1.41,0,.84,1.23,4.33,1.22,3.49.56,1.13,1.5,2.64.95,1.51.38,1.7,0,2.73-.37,1.04-1.03,2.83-.75,5.19.28,2.35,1.04,2.63,1.23,4.43.18,1.79-3.68,3.11-3.68,3.11l2.07,3.86,5.17,7.32h-46.03c1.49-3.09,3.45-6.94,3.45-6.94v-1.61l11.78-.18Z"/>
    </g>
    <text class="cls-1" transform="translate(.02 120.26) scale(.74 1)"><tspan x="0" y="0">AMERI</tspan><tspan class="cls-5" x="73.87" y="0">C</tspan><tspan x="91.1" y="0">AN HUNTER AND</tspan><tspan x="3.82" y="19.04">SHOTERS </tspan><tspan class="cls-6" x="125.65" y="19.04">A</tspan><tspan x="142.53" y="19.04">SOCI</tspan><tspan class="cls-4" x="200.93" y="19.04">A</tspan><tspan x="216.39" y="19.04">TION</tspan><tspan class="cls-9" x="272.74" y="19.04">	</tspan></text>
  </g>
</svg>