<?xml version="1.0" encoding="UTF-8"?>
<svg id="Capa_2" data-name="Capa 2" xmlns="http://www.w3.org/2000/svg" viewBox="0 0 438.54 238.48">
  <defs>
    <style>
      .cls-1 {
        fill: #fff;
      }

      .cls-2 {
        fill: #1d1d1b;
      }
    </style>
  </defs>
  <g id="Capa_1-2" data-name="Capa 1">
    <rect class="cls-2" width="438.54" height="238.48"/>
    <path class="cls-1" d="m194.31,114.1c.65-.36,1.28-.76,1.94-1.09,7.92-3.98,15.83-8,23.8-11.91,2.2-1.08,4.66-1.62,6.83-2.74,2.75-1.41,5.3-3.23,8-4.75,3.08-1.73,6.18-3.43,9.36-4.96,3.02-1.45,6.1-2.81,9.25-3.95,4.88-1.77,9.9-2.92,15.16-2.53.59.04,1.2.13,1.77.29,1.42.41,2.78.94,3.06,2.66.27,1.72-.45,2.99-1.76,4.08-4.76,3.97-10.48,6.03-16.13,8.22-4.14,1.61-8.33,3.08-12.5,4.61-1.95.72-3.89,1.07-5.99.56-2.17-.53-4.03.81-4.11,3.03-.02.71.7,1.78,1.37,2.13,2.96,1.56,6.2,1.1,9.37.93,6.13-.34,12.2-1.12,18.08-2.96,3.26-1.02,6.51-2.09,9.77-3.14,2-.64,4.05-1.16,5.97-1.98,1-.43,2-1.26,2.58-2.18,1.1-1.72,2.21-3.5,4.24-3.94,3.71-.8,5.46-3.48,7.29-6.38,5.36-8.48,10.67-16.98,14.62-26.23,2.19-5.12,4.21-10.31,6.19-15.51,1.21-3.17,3.3-5.55,6.14-7.28,1.38-.84,2.88-.81,4.28.06,1.33.82,1.52,2.18,1.29,3.5-.29,1.63-.55,3.4-1.38,4.77-4.24,7.02-8.58,13.99-13.04,20.88-4.37,6.75-8.93,13.37-13.37,20.06-.33.5-.4,1.17-.59,1.76.45.09.91.3,1.33.24,4.51-.61,9-1.53,13.52-1.85,6.27-.43,12.58-.52,18.87-.51,1.43,0,2.84,1.04,4.29,1.49.78.24,1.76.53,2.44.26,4.12-1.66,8.08-3.77,12.27-5.17,5.28-1.76,10.68-3.38,16.41-2.11,1.49.33,2.85.92,3.25,2.47.43,1.66-.41,2.97-1.64,4.11-3.99,3.69-9,5.45-13.88,7.44-4.89,1.99-9.82,3.89-14.83,5.54-1.86.61-4,.63-5.99.51-2.26-.14-3.57.49-4.13,2.71-.3,1.18-.07,2.22,1.24,2.59,1.37.39,2.81,1,4.17.9,6.33-.47,12.72-.78,18.95-1.9,4.98-.9,9.79-2.8,14.63-4.42,4.09-1.37,8.08-3.02,12.15-4.43.63-.22,1.48.21,2.24.34-.21.68-.36,1.4-.65,2.04-.13.28-.54.47-.86.62-9.59,4.49-19.56,7.93-29.72,10.88-6.68,1.93-13.45,3.1-20.37,3.41-2.07.09-4.25-.03-6.24-.56-6.36-1.71-7.16-7.37-4.44-11.4,1.84-2.72,4.61-4.82,6.94-7.21.63-.64,1.19-1.34,1.79-2.02-.86-.48-1.66-1.15-2.57-1.42-5.59-1.67-11.12-.94-16.7.34-4.09.94-7.9,2.23-11.43,4.6-2.78,1.86-4.23,4.34-4.81,7.44-2.75,14.56-7.74,28.33-14.46,41.51-4.7,9.21-9.7,18.23-16.07,26.4-1.48,1.9-3.45,3.54-5.48,4.85-4.22,2.72-8.03.51-8.1-4.44-.08-6.08,2.1-11.59,4.65-16.87,4.93-10.2,10-20.34,15.43-30.28,4.08-7.47,8.8-14.58,13.23-21.86.25-.42.44-.88.9-1.83-1.08.3-1.64.38-2.14.61-9.75,4.48-19.97,7.62-30.35,10.15-6.68,1.63-13.55,2.82-20.5,1.6-4.37-.77-6.3-3.18-6.32-7.57,0-1.51-.4-1.69-1.93-1.38-5.42,1.1-10.29,3.53-15.25,5.79-6.69,3.04-12,7.82-17.06,12.99-6.43,6.57-11.17,14.37-16.42,21.8-4.5,6.36-8.99,12.75-13.86,18.83-2.68,3.34-6.12,6.08-9.24,9.07-.43.41-.94.74-1.43,1.09-.98.69-2.22,1.37-3.07.34-.65-.78-1.12-2.36-.77-3.21,1.57-3.75,3.29-7.46,5.3-10.99,4.75-8.35,10.87-15.67,17.61-22.46,4.01-4.04,8.27-7.83,12.26-11.89,1.62-1.65,2.86-3.69,4.16-5.63,5.76-8.59,10.82-17.57,15.06-27.01,1.4-3.11,2.49-6.36,3.74-9.54.85-2.16,1.86-4.16,4.31-4.98,2.75-.92,5.2.57,5.44,3.44.17,1.96-.13,3.79-1.33,5.47-3.65,5.13-7.28,10.27-10.84,15.46-1.73,2.52-3.27,5.17-4.87,7.78-.28.46-.45,1-.67,1.5.13.11.25.22.38.34Zm62.03,51.82c.19.06.39.12.58.18.28-.18.65-.3.84-.55,3.7-5.08,7.7-9.98,10.98-15.32,5.46-8.9,10.47-18.07,13.76-28.05,1.48-4.49,2.79-9.04,4.04-13.6.27-.97-.07-2.11-.13-3.17-.2-.03-.39-.07-.59-.1-.95,1.43-2,2.8-2.83,4.29-4.19,7.48-8.44,14.92-12.46,22.49-5.12,9.64-10.06,19.39-13.3,29.87-.4,1.29-.59,2.63-.87,3.95Zm81.51-69.8c.07.23.13.47.2.7.84-.06,1.73.02,2.52-.2,2.24-.62,4.53-1.18,6.65-2.1,3.07-1.33,6.02-2.93,8.99-4.49.46-.24.74-.83,1.1-1.26-.56-.22-1.17-.7-1.69-.62-1.64.26-3.35.5-4.85,1.17-3.22,1.43-6.35,3.09-9.48,4.71-1.19.61-2.3,1.38-3.44,2.08Zm-94.81-.08c2.19,2.08,18.16-4.18,19.66-7.68-1.72-.45-3.35-.33-4.88.37-3.53,1.6-7.02,3.29-10.51,4.99-1.39.68-2.72,1.48-4.28,2.33Zm-121.65,7.27c-2.7,1.07-4.82,1.96-6.99,2.75-9.49,3.43-19.04,6.73-29.02,8.34-5,.81-10.09,1.58-15.22.48-6.09-1.3-7.42-7.34-4.89-11.44,2.59-4.18,6.36-7.22,10.51-9.66,7.93-4.67,16.15-8.83,25.22-10.81,3.18-.69,6.54-.61,9.82-.7.89-.03,1.85.49,2.68.94,1.57.85,2.02,2.24,1.15,3.81-.54.97-1.3,1.88-2.15,2.61-4.19,3.59-9.33,5.37-14.36,7.33-4.75,1.85-9.5,3.72-14.34,5.32-1.63.54-3.55.44-5.31.29-2.08-.18-4.11,1.11-4.03,3.19.03.74.77,1.75,1.47,2.11,2.85,1.5,5.96.95,9.01.87,9.06-.23,17.67-2.52,26.14-5.55,2.94-1.05,5.92-1.99,8.93-2.83,2.29-.63,3.73-1.9,4.95-4.02,5.99-10.47,12.16-20.83,18.32-31.2,3.55-5.97,7.18-11.9,10.82-17.81,1.16-1.88,2.45-3.69,3.78-5.47.99-1.33,3-1.84,4.58-1.25,1.91.71,2.77,2.28,2.96,4.17.19,1.84-.28,3.51-1.56,5-4.23,4.91-8.54,9.76-12.53,14.86-3.58,4.58-6.98,9.33-10.1,14.22-4.32,6.77-8.4,13.7-12.36,20.68-1.12,1.98-1.52,4.38-2.1,6.63-.37,1.42.4,2.41,1.83,2.54,1.6.15,3.33.43,4.81-.02,5.55-1.67,11.1-3.43,16.51-5.5,4.36-1.67,8.51-3.9,12.8-5.75.65-.28,1.6.14,2.41.23-.34.68-.5,1.63-1.05,2.01-7.12,4.91-14.37,9.63-22.32,13.11-4.52,1.98-9.17,3.81-14.2,3.55-1.99-.1-4.25-.71-5.81-1.86-2.84-2.1-1.98-5.22-1.19-8.12.22-.83.45-1.65.83-3.04Zm-37.11-7.11c.06.19.11.38.17.57.72,0,1.46.11,2.16-.02,5.45-.98,10.34-3.39,15.07-6.13.85-.49,1.53-1.28,2.3-1.94-1.17-.11-2.51-.63-3.49-.25-3.67,1.43-7.24,3.12-10.81,4.81-1.85.88-3.61,1.96-5.4,2.95Zm260.95-20.3c5.83-1.97,11.75-3.69,17.64-5.47,5.73-1.73,11.47-3.4,17.21-5.11.28-.08.64-.19.79-.41.4-.59.71-1.25,1.05-1.89-.64-.33-1.29-.94-1.92-.92-1.12.03-2.22.45-3.33.68-5.75,1.18-11.48,2.44-17.25,3.49-3.64.66-7.33,1-11.01,1.46-1.48.19-2.99.22-4.45.52-2.29.48-3.78,2.46-3.8,4.81-.03,2.82,2.12,3.83,5.08,2.83Zm-127.23-10.59c3.32-1.38,5.13-3.98,6.23-7.24.77-2.28-.1-3.57-2.46-3.02-2.65.62-5.27,1.6-7.68,2.87-1.06.56-1.54,2.2-2.29,3.35.44,3.61,3.13,5.31,6.2,4.03Z"/>
    <g>
      <path class="cls-1" d="m103.21,203.08c0-1.51.23-2.79.68-3.81.34-.76.8-1.44,1.39-2.04.59-.6,1.23-1.05,1.92-1.34.93-.39,2-.59,3.21-.59,2.19,0,3.95.68,5.26,2.04,1.32,1.36,1.97,3.25,1.97,5.67s-.65,4.28-1.96,5.64c-1.31,1.36-3.05,2.03-5.24,2.03s-3.97-.67-5.28-2.02c-1.31-1.35-1.96-3.21-1.96-5.58Zm3.1-.1c0,1.68.39,2.96,1.17,3.83.78.87,1.77,1.3,2.96,1.3s2.18-.43,2.95-1.29c.77-.86,1.15-2.16,1.15-3.88s-.37-2.98-1.12-3.81c-.75-.84-1.74-1.26-2.98-1.26s-2.24.42-2.99,1.27-1.14,2.13-1.14,3.84Z"/>
      <path class="cls-1" d="m138.66,195.55h3v8.06c0,1.28.04,2.11.11,2.49.13.61.43,1.1.92,1.47.48.37,1.14.55,1.98.55s1.5-.17,1.93-.52c.43-.35.69-.78.78-1.28.09-.51.13-1.35.13-2.53v-8.23h3v7.81c0,1.79-.08,3.05-.24,3.79-.16.74-.46,1.36-.9,1.87-.44.51-1.02.91-1.75,1.21-.73.3-1.68.45-2.86.45-1.42,0-2.5-.16-3.23-.49-.73-.33-1.31-.75-1.74-1.28s-.71-1.07-.84-1.65c-.2-.85-.29-2.11-.29-3.77v-7.94Z"/>
      <path class="cls-1" d="m175.74,210.43v-12.36h-4.41v-2.52h11.82v2.52h-4.4v12.36h-3Z"/>
      <path class="cls-1" d="m203.78,195.55h5.49c1.24,0,2.18.09,2.83.28.87.26,1.62.71,2.24,1.37.62.66,1.1,1.46,1.42,2.41.32.95.49,2.12.49,3.52,0,1.22-.15,2.28-.46,3.17-.37,1.08-.9,1.96-1.59,2.63-.52.51-1.22.9-2.11,1.19-.66.21-1.55.31-2.66.31h-5.65v-14.88Zm3,2.52v9.85h2.24c.84,0,1.44-.05,1.82-.14.49-.12.89-.33,1.21-.62.32-.29.58-.77.79-1.44s.3-1.57.3-2.72-.1-2.03-.3-2.65c-.2-.61-.49-1.1-.85-1.44s-.83-.58-1.39-.7c-.42-.09-1.24-.14-2.47-.14h-1.35Z"/>
      <path class="cls-1" d="m236.9,203.08c0-1.51.23-2.79.68-3.81.34-.76.8-1.44,1.39-2.04.59-.6,1.23-1.05,1.92-1.34.93-.39,2-.59,3.21-.59,2.19,0,3.95.68,5.26,2.04,1.32,1.36,1.97,3.25,1.97,5.67s-.65,4.28-1.96,5.64c-1.31,1.36-3.05,2.03-5.24,2.03s-3.97-.67-5.28-2.02c-1.31-1.35-1.96-3.21-1.96-5.58Zm3.1-.1c0,1.68.39,2.96,1.17,3.83.78.87,1.77,1.3,2.96,1.3s2.18-.43,2.95-1.29c.77-.86,1.15-2.16,1.15-3.88s-.37-2.98-1.12-3.81c-.75-.84-1.74-1.26-2.98-1.26s-2.24.42-2.99,1.27-1.14,2.13-1.14,3.84Z"/>
      <path class="cls-1" d="m271.76,203.08c0-1.51.23-2.79.68-3.81.34-.76.8-1.44,1.39-2.04.59-.6,1.23-1.05,1.92-1.34.93-.39,2-.59,3.21-.59,2.19,0,3.95.68,5.26,2.04,1.32,1.36,1.97,3.25,1.97,5.67s-.65,4.28-1.96,5.64c-1.31,1.36-3.05,2.03-5.24,2.03s-3.97-.67-5.28-2.02c-1.31-1.35-1.96-3.21-1.96-5.58Zm3.1-.1c0,1.68.39,2.96,1.17,3.83.78.87,1.77,1.3,2.96,1.3s2.18-.43,2.95-1.29c.77-.86,1.15-2.16,1.15-3.88s-.37-2.98-1.12-3.81c-.75-.84-1.74-1.26-2.98-1.26s-2.24.42-2.99,1.27-1.14,2.13-1.14,3.84Z"/>
      <path class="cls-1" d="m307.25,210.43v-14.88h6.32c1.59,0,2.74.13,3.46.4s1.3.74,1.73,1.43c.43.68.65,1.46.65,2.34,0,1.12-.33,2.04-.98,2.77-.66.73-1.64,1.19-2.94,1.38.65.38,1.19.8,1.61,1.25.42.45.99,1.26,1.71,2.41l1.82,2.9h-3.59l-2.17-3.24c-.77-1.16-1.3-1.89-1.58-2.19-.28-.3-.59-.51-.9-.62-.32-.11-.82-.17-1.51-.17h-.61v6.21h-3Zm3-8.58h2.22c1.44,0,2.34-.06,2.7-.18.36-.12.64-.33.84-.63.2-.3.3-.67.3-1.12,0-.5-.13-.91-.4-1.21-.27-.31-.64-.5-1.13-.58-.24-.03-.97-.05-2.19-.05h-2.34v3.78Z"/>
      <path class="cls-1" d="m340.19,205.59l2.92-.28c.18.98.53,1.7,1.07,2.16.54.46,1.26.69,2.18.69.97,0,1.7-.2,2.19-.61.49-.41.74-.89.74-1.44,0-.35-.1-.65-.31-.9-.21-.25-.57-.46-1.08-.64-.35-.12-1.15-.34-2.4-.65-1.61-.4-2.74-.89-3.39-1.47-.91-.82-1.37-1.82-1.37-2.99,0-.76.21-1.47.64-2.13.43-.66,1.05-1.16,1.86-1.51.81-.35,1.78-.52,2.93-.52,1.87,0,3.27.41,4.22,1.23.94.82,1.44,1.91,1.49,3.28l-3,.13c-.13-.76-.4-1.31-.83-1.65-.42-.33-1.06-.5-1.9-.5s-1.56.18-2.05.54c-.32.23-.48.54-.48.92,0,.35.15.65.45.9.38.32,1.3.65,2.76.99s2.54.7,3.24,1.07c.7.37,1.25.87,1.64,1.51.4.64.59,1.43.59,2.37,0,.85-.24,1.65-.71,2.4-.47.74-1.14,1.3-2.01,1.66-.87.36-1.95.54-3.24.54-1.88,0-3.32-.43-4.33-1.3-1.01-.87-1.61-2.14-1.81-3.8Z"/>
    </g>
  </g>
</svg>